<svg xmlns="http://www.w3.org/2000/svg" width="1280" height="640" viewBox="0 0 1280 640"><defs><radialGradient id="bg" cx="50%" cy="-10%" r="95%"><stop offset="0" stop-color="#102949"/><stop offset=".30" stop-color="#07111f"/><stop offset=".70" stop-color="#050a12"/></radialGradient><linearGradient id="accent" x1="0" x2="1"><stop offset="0" stop-color="#19d7ff"/><stop offset="1" stop-color="#6483ff"/></linearGradient><pattern id="grid" width="48" height="48" patternUnits="userSpaceOnUse"><path d="M48 0H0V48" fill="none" stroke="#fff" stroke-opacity=".026" stroke-width="1"/></pattern></defs><rect width="1280" height="640" fill="url(#bg)"/><rect width="1280" height="640" fill="url(#grid)"/><text x="96" y="120" fill="#7be8ff" font-family="Inter,Segoe UI,Arial,sans-serif" font-size="18" font-weight="800" letter-spacing="3">PRE-RELEASE SOURCE CHECKPOINT</text><text x="96" y="248" fill="#eef7ff" font-family="Inter,Segoe UI,Arial,sans-serif" font-size="80" font-weight="800" letter-spacing="-3">Genia Link</text><text x="96" y="332" fill="url(#accent)" font-family="Inter,Segoe UI,Arial,sans-serif" font-size="52" font-weight="800">v0.3.1 RC4</text><text x="96" y="434" fill="#91a6ba" font-family="Inter,Segoe UI,Arial,sans-serif" font-size="25">GNP/1 M2.6.2 • Authenticated Capabilities</text><rect x="768" y="52" width="436" height="536" rx="32" fill="#0a1728" fill-opacity=".78" stroke="#78c4ff" stroke-opacity=".15"/><circle cx="986" cy="320" r="148" fill="none" stroke="#57c7ff" stroke-opacity=".15"/><circle cx="986" cy="320" r="208" fill="none" stroke="#57c7ff" stroke-opacity=".09"/><path d="M986 320L876 186M986 320L1096 186M986 320L876 454M986 320L1096 454" stroke="url(#accent)" stroke-opacity=".45" stroke-width="2"/><circle cx="986" cy="320" r="82" fill="#19d7ff" fill-opacity=".10"/><g fill="#0b1727" stroke="#82bceb" stroke-opacity=".20"><rect x="828" y="158" width="96" height="54" rx="9"/><rect x="1048" y="158" width="96" height="54" rx="9"/><rect x="828" y="428" width="96" height="54" rx="9"/><rect x="1048" y="428" width="96" height="54" rx="9"/></g><g fill="#eef7ff" font-family="Inter,Segoe UI,Arial,sans-serif" font-size="16" font-weight="700" text-anchor="middle"><text x="876" y="181">PC</text><text x="1096" y="181">Laptop</text><text x="876" y="451">Phone</text><text x="1096" y="451">Tablet</text></g><g fill="#65f2bb" font-family="Inter,Segoe UI,Arial,sans-serif" font-size="11" text-anchor="middle"><text x="876" y="200">Trusted</text><text x="1096" y="200">Direct</text><text x="876" y="470">Local</text><text x="1096" y="470">Secure</text></g><text x="986" y="326" text-anchor="middle" fill="#eef7ff" font-family="Inter,Segoe UI,Arial,sans-serif" font-size="24" font-weight="800">Genia Link</text><text x="986" y="352" text-anchor="middle" fill="#91a6ba" font-family="Inter,Segoe UI,Arial,sans-serif" font-size="13">Trusted local network</text></svg>